<?xml version="1.0" encoding="UTF-8" standalone="no"?>
<!-- Created with Inkscape (http://www.inkscape.org/) -->

<svg
   width="100mm"
   height="28mm"
   viewBox="0 0 100 28"
   version="1.1"
   id="svg1"
   xml:space="preserve"
   inkscape:version="1.3.2 (091e20ef0f, 2023-11-25, custom)"
   sodipodi:docname="pelicun.svg"
   xmlns:inkscape="http://www.inkscape.org/namespaces/inkscape"
   xmlns:sodipodi="http://sodipodi.sourceforge.net/DTD/sodipodi-0.dtd"
   xmlns="http://www.w3.org/2000/svg"
   xmlns:svg="http://www.w3.org/2000/svg"><sodipodi:namedview
     id="namedview1"
     pagecolor="#ffffff"
     bordercolor="#666666"
     borderopacity="1.0"
     inkscape:showpageshadow="2"
     inkscape:pageopacity="0.0"
     inkscape:pagecheckerboard="0"
     inkscape:deskcolor="#d1d1d1"
     inkscape:document-units="mm"
     inkscape:zoom="1.1893651"
     inkscape:cx="250.97424"
     inkscape:cy="245.50914"
     inkscape:window-width="1920"
     inkscape:window-height="1032"
     inkscape:window-x="0"
     inkscape:window-y="24"
     inkscape:window-maximized="0"
     inkscape:current-layer="layer1" /><defs
     id="defs1"><inkscape:perspective
       sodipodi:type="inkscape:persp3d"
       inkscape:vp_x="-5.3197646 : 13.200795 : 1"
       inkscape:vp_y="0 : 999.99987 : 0"
       inkscape:vp_z="32.557242 : 13.847345 : 1"
       inkscape:persp3d-origin="64.019003 : -68.723803 : 1"
       id="perspective1" /></defs><g
     inkscape:label="Layer 1"
     inkscape:groupmode="layer"
     id="layer1"><text
       xml:space="preserve"
       style="font-size:21.1667px;line-height:1.25;font-family:Palatino;-inkscape-font-specification:Palatino;stroke-width:0.264583"
       x="32.454643"
       y="18.352024"
       id="text1"><tspan
         sodipodi:role="line"
         id="tspan1"
         style="font-style:normal;font-weight:bold;font-size:21.1667px;fill:#292964;fill-opacity:1;stroke-width:0.264583"
         x="32.454643"
         y="18.352024">pelicun</tspan></text><circle
       style="fill:#292964;fill-opacity:1;fill-rule:evenodd;stroke-width:0.352777;-inkscape-stroke:none;paint-order:fill markers stroke"
       id="path1"
       cx="14.142912"
       cy="13.856221"
       r="12.41267" /><circle
       style="fill:#292964;fill-opacity:1;fill-rule:evenodd;stroke:none;stroke-width:0.352777;-inkscape-stroke:none;paint-order:fill markers stroke"
       id="path1-0"
       cx="14.142912"
       cy="13.856221"
       r="12.41267" /><g
       sodipodi:type="inkscape:box3d"
       id="g1"
       style="fill:#292964;fill-opacity:1;fill-rule:evenodd;stroke-width:1.33333;-inkscape-stroke:none;paint-order:fill markers stroke;stop-color:#000000"
       inkscape:perspectiveID="#perspective1"
       inkscape:corner0="3.6502102 : 0.11003074 : 0 : 1"
       inkscape:corner7="2.5887613 : 0.059692207 : 1.1410313 : 1"><path
         sodipodi:type="inkscape:box3dside"
         id="path7"
         style="fill:#e9e9ff;fill-rule:evenodd;stroke:none;stroke-linejoin:round"
         inkscape:box3dsidetype="11"
         d="M 14.116071,9.8186038 18.477816,8.7008691 V 19.343731 l -4.361745,-0.832945 z"
         points="18.477816,8.7008691 18.477816,19.343731 14.116071,18.510786 14.116071,9.8186038 " /><path
         sodipodi:type="inkscape:box3dside"
         id="path2"
         style="fill:#353564;fill-rule:evenodd;stroke:none;stroke-linejoin:round"
         inkscape:box3dsidetype="6"
         d="M 9.5911244,8.7551491 V 19.58015 L 14.116071,18.510786 V 9.8186038 Z"
         points="9.5911244,19.58015 14.116071,18.510786 14.116071,9.8186038 9.5911244,8.7551491 " /><path
         sodipodi:type="inkscape:box3dside"
         id="path6"
         style="fill:#afafde;fill-rule:evenodd;stroke:none;stroke-linejoin:round"
         inkscape:box3dsidetype="13"
         d="m 9.5911244,19.58015 4.4101976,1.414061 4.476494,-1.65048 -4.361745,-0.832945 z"
         points="14.001322,20.994211 18.477816,19.343731 14.116071,18.510786 9.5911244,19.58015 " /><path
         sodipodi:type="inkscape:box3dside"
         id="path3"
         style="fill:#4d4d9f;fill-rule:evenodd;stroke:none;stroke-linejoin:round"
         inkscape:box3dsidetype="5"
         d="M 9.5911244,8.7551491 14.001322,6.9674972 18.477816,8.7008691 14.116071,9.8186038 Z"
         points="14.001322,6.9674972 18.477816,8.7008691 14.116071,9.8186038 9.5911244,8.7551491 " /><path
         sodipodi:type="inkscape:box3dside"
         id="path5"
         style="fill:#d7d7ff;fill-rule:evenodd;stroke:none;stroke-linejoin:round"
         inkscape:box3dsidetype="14"
         d="M 14.001322,6.9674972 V 20.994211 l 4.476494,-1.65048 V 8.7008691 Z"
         points="14.001322,20.994211 18.477816,19.343731 18.477816,8.7008691 14.001322,6.9674972 " /><path
         sodipodi:type="inkscape:box3dside"
         id="path4"
         style="fill:#8686bf;fill-rule:evenodd;stroke:none;stroke-linejoin:round"
         inkscape:box3dsidetype="3"
         d="M 9.5911244,8.7551491 14.001322,6.9674972 V 20.994211 L 9.5911244,19.58015 Z"
         points="14.001322,6.9674972 14.001322,20.994211 9.5911244,19.58015 9.5911244,8.7551491 " /></g><path
       style="fill:none;stroke:#ff0000;stroke-width:0.399999;stroke-linecap:round;stroke-linejoin:round;stroke-dasharray:none;stroke-opacity:1"
       d="m 3.3085754,17.403984 0.248275,0.07474 c 0,0 0.0673,-0.06846 0.130962,-0.07016 0.06367,-0.0017 0.179496,-0.0025 0.239298,0.07463 0.05981,0.07726 0.141639,0.188215 0.218638,0.18637 0.07699,-0.0017 0.153809,-0.01613 0.170696,-0.04891 0.01689,-0.03281 0.05752,-0.09043 0.101721,-0.07873 0.04421,0.01176 0.107475,0.06492 0.142017,0.04766 0.03454,-0.01726 0.116208,-0.128916 0.14834,-0.129904 0.0321,-8.29e-4 0.05294,-0.04343 0.124794,-0.02513 0.07184,0.01825 0.139286,0.08148 0.195701,0.0116 0.05642,-0.06987 0.108931,-0.288641 0.117103,-0.438106 0.0081,-0.149469 -0.02019,-0.277522 0.01721,-0.365024 0.0374,-0.0875 0.04126,-0.450322 0.04782,-0.523899 0.0065,-0.07358 0.06716,-1.009879 0.101427,-1.134481 0.03428,-0.124605 0.05935,-0.542742 0.09699,-0.526188 0.03764,0.01655 0.06464,0.938458 0.104244,1.307512 0.03959,0.369052 0.02913,0.683554 0.119239,1.051567 0.0901,0.368016 0.02624,1.214624 0.06314,1.289139 0.03691,0.07452 0.03883,-0.380833 0.05663,-0.656518 0.01783,-0.275685 0.07742,-0.769038 0.116635,-1.047771 0.0392,-0.278734 0.0346,-0.985004 0.04114,-1.204404 0.0065,-0.219398 -0.01819,-1.567372 0.02844,-1.746268 0.04667,-0.1789 -0.0024,-1.25691 0.08783,-0.451353 0.09038,0.80556 0.143928,1.99217 0.14972,2.293768 0.0057,0.301601 0.0073,1.566686 0.0043,1.863929 -0.0032,0.297246 -0.03574,0.880776 0.0093,1.134105 0.04519,0.253326 0.0809,0.649628 0.116128,0.908696 0.03522,0.259068 0.01517,0.47313 0.04916,0.572932 0.03398,0.0998 0.05513,0.460076 0.05218,0.952027 -0.0029,0.491944 0.04134,1.591385 0.0936,2.010655 0.05226,0.41928 0.161685,0.98168 0.191808,-0.008 0.03014,-0.98881 0.08731,-1.758904 0.120081,-2.016227 0.03274,-0.257322 0.13909,-1.140757 0.131069,-1.352319 -0.008,-0.21156 -0.0012,-1.291267 -0.0012,-1.399612 0,-0.108348 -0.0029,-1.365003 0.05779,-1.547736 0.06058,-0.182737 0.106528,-0.117456 0.138287,-0.341568 0.03174,-0.224118 -0.0024,-1.624209 0.06716,-0.826513 0.06951,0.797696 0.07452,2.365206 0.181869,2.696259 0.107356,0.331053 0.09181,0.720185 0.140273,0.911164 0.04847,0.190979 0.04908,0.630153 0.08981,-0.227204 0.04073,-0.857352 0.04686,-1.599067 0.109078,-1.909549 0.06222,-0.310483 0.209816,-0.341664 0.224556,-0.553259 0.01471,-0.211598 0.05276,-1.148463 0.108196,-1.479786 0.05544,-0.331327 0.110226,-0.791362 0.156099,-0.217808 0.04587,0.57355 0.05281,1.882966 0.07893,2.230481 0.02613,0.347513 0.05031,0.769146 0.135709,0.217399 0.08539,-0.551753 0.08312,-0.997536 0.102615,-1.189443 0.01951,-0.191912 0.07847,-0.425308 0.150327,0.084 0.07186,0.50931 0.03458,0.617141 0.06605,0.788716 0.0315,0.171578 0.06643,0.636538 0.07463,0.914806 0.0081,0.27827 -0.01486,1.945758 0.03428,2.233482 0.04914,0.287726 0.0075,0.07564 0.07449,0.377855 0.06707,0.302215 0.105472,0.5029 0.169081,0.06536 0.06361,-0.437549 0.06559,-0.863408 0.0998,-0.971746 0.03422,-0.108332 0.08554,0.05788 0.190107,-0.143998 0.104564,-0.201872 0.10586,-0.33474 0.192488,-0.453021 0.08662,-0.118287 0.197966,0.08655 0.271655,0.218609 0.07368,0.132052 0.07674,0.251635 0.1597986,0.176966 0.08305,-0.07466 0.190155,0.04131 0.29003,-0.17865 0.09988,-0.219974 0.06646,-0.998883 0.217747,-1.138784 0.151298,-0.139906 0.04131,-0.652171 0.152717,-1.02143 0.111414,-0.369261 0.14273,-0.5782 0.215098,-0.527188 0.07236,0.05101 0.12916,-0.01003 0.229054,0.154204 0.09989,0.164211 0.143518,0.03753 0.247939,0.441407 0.104418,0.403862 0.15151,0.559335 0.302207,0.935305 0.150691,0.375968 0.317551,0.587966 0.397617,0.795872 0.08008,0.20791 0.106608,0.231442 0.137164,0.79052 0.03058,0.559076 0.09499,0.719497 0.212052,0.255434 0.117049,-0.464063 -0.08657,-0.832365 0.144337,-1.201143 0.230888,-0.368779 0.197137,-0.624513 0.250979,-0.875397 0.05385,-0.250884 -0.05322,-0.136504 0.174121,-0.472894 0.227353,-0.336388 0.04445,-0.993511 0.154153,-1.233508 0.109719,-0.239999 0.03386,-0.452262 0.207411,-0.528444 0.173571,-0.07618 0.277906,0.07883 0.296694,0.09566 0.01877,0.01684 0.22443,0.237766 0.327522,0.405364 0.103109,0.167596 0.11494,0.286411 0.128039,0.416618 0.01309,0.130202 0.01761,0.283202 0.142076,0.36239 0.12446,0.07919 0.02652,-0.128101 0.114726,-0.273668 0.08819,-0.145566 0.15214,-0.158699 0.251693,0.06815 0.09956,0.226846 0.07125,0.612474 0.251467,0.777623 0.180225,0.165153 0.337553,0.317302 0.625748,0.327461 0.288191,0.01019 0.365987,-0.03647 0.534516,-0.121125 0.168533,-0.08464 0.567174,0.240846 0.694699,0.394472 0.127518,0.153624 0.182904,0.307579 0.298467,0.33694 0.115568,0.02936 0.209567,-0.129544 0.423202,-0.07237 0.213635,0.05718 0.147218,0.110888 0.342669,-0.0072 0.19545,-0.118021 0.181093,0.197367 0.401543,0.11697 0.220448,-0.0804 0.540249,0.189875 0.787034,0.01593 0.246785,-0.17395 0.19724,0.01717 0.606019,-0.190904 0.408774,-0.208059 0.617852,0.06941 0.822222,-0.08284 0.204371,-0.152228 0.470511,0.220666 0.765649,0.161404 0.295133,-0.05926 0.517113,-0.426702 0.703733,-0.424471 0.186618,0.002 0.731178,-0.028 0.94078,-0.102484 0.209603,-0.07448 0.832076,-0.284429 1.195109,-0.321675 0.363034,-0.03725 0.743502,0.210202 1.033001,0.199034 0.289501,-0.01113 0.815951,-0.02359 1.037018,-0.04391 0.221066,-0.02032 2.075302,0.05238 2.153832,0.07439"
       id="path21"
       sodipodi:nodetypes="ccsccscsccssssssssssssscsccsscssssscscsssssssssssssssssssssssssssssssssssssscssssssssscssssscsscsc" /></g></svg>
